PathFileType	4	(X/Y/Z)	Kaydara	
DataRate	CameraRate	NumFrames	NumMarkers	Units	OrigDataRate	OrigDataStartFrame	OrigNumFrames	
60.00	60.00	4	186	mm	60.00	236	471	
Frame#	Time	HeadTop			ForeHead			LFrontHead			RFrontHead			TopSpine			Sternum			Scapula			LFShoulder			LShoulder			LBicep			LOuterElbow			LHand			LWristPinky			LWristThumb			RFShoulder			RShoulder			RBicep			ROuterElbow			RHand			RWristPinky			RWristThumb			MiddleBack			LowerBack			Root			Pelvis			LBackWaist			RBackWaist			LFrontWaist			RFrontWaist			Bellymarker			LThigh			LOuterKnee			LAnkle			LHeel			LOuterMeta			LToe			RThigh			ROuterKnee			RAnkle			RHeel			ROuterMeta			RToe			Floor1			Floor2			Floor3			Floor4			MidDoghead			LeftDogHead			RightDogHead			TopSpineDog			LFhoulderDog			LElbowDog			LForeLeg			LPaw			RFShoulderDog			RElbowDog			RForeLeg			RPaw			MidbackDog			LowBackDog			RootDog			LFrontWaistDog			RFrontWaistDog			LBackWaistDog			RBackWaistDog			LBackElbow			LBackLeg			LBackPaw			RBackElbow			RBackLeg			RBackPaw			t			VR_STERNUM2			VR_RForeleg			VR_Relbow			VR_Rpaw			VR_LForeleg			VR_Lelbow			VR_Lpaw			VR_RRearleg			VR_RBackelbow			VR_RBackpaw			VR_LBackleg			VR_LBackelbow			VR_LBackpaw			VR_RFrontspine			VR_LFrontspine			VR_STERNUM3			VR_NeckSternum			Hoop1			Hoop2			Hoop3			Hoop4			Stand1			Stand2			Stand3			Stand4			*Unnamed_42			*Unnamed_43			*Unnamed_44			*Unnamed_45			*Unnamed_80			*Unnamed_81			*Unnamed_82			*Unnamed_83			*Unnamed_84			*Unnamed_85			*Unnamed_86			*Unnamed_87			*Unnamed_88			*Unnamed_89			*Unnamed_90			*Unnamed_91			*Unnamed_92			*Unnamed_93			*Unnamed_94			*Unnamed_95			*Unnamed_96			*Unnamed_97			*Unnamed_98			*Unnamed_99			*Unnamed_100			*Unnamed_101			*Unnamed_102			*Unnamed_103			*Unnamed_104			*Unnamed_105			*Unnamed_106			*Unnamed_107			*Unnamed_47			*Unnamed_48			*Unnamed_49			*Unnamed_50			*Unnamed_51			*Unnamed_52			*Unnamed_53			*Unnamed_54			*Unnamed_55			*Unnamed_56			*Unnamed_57			*Unnamed_58			*Unnamed_59			*Unnamed_60			*Unnamed_61			*Unnamed_62			*Unnamed_63			*Unnamed_64			*Unnamed_65			*Unnamed_66			*Unnamed_67			*Unnamed_68			*Unnamed_69			*Unnamed_70			*Unnamed_71			*Unnamed_72			*Unnamed_73			*Unnamed_74			*Unnamed_75			*Unnamed_76			*Unnamed_77			*Unnamed_78			*Unnamed_79			prop1			prop2			prop3			prop4			prop5			prop6			prop7			prop8			L_Handlebar			R_Handlebar			Front_Frame			L_Fork			R_Fork			Front_Orig_Spoke			Front_Long_Spoke			Front_Plane_Spoke			Crossframe			L_Pedal			R_Pedal			L_Rear_Fork			R_Rear_Fork			Back_Orig_Spoke			Back_Long_Spoke			Back_Plane_Spoke			
		X1	Y1	Z1	X2	Y2	Z2	X3	Y3	Z3	X4	Y4	Z4	X5	Y5	Z5	X6	Y6	Z6	X7	Y7	Z7	X8	Y8	Z8	X9	Y9	Z9	X10	Y10	Z10	X11	Y11	Z11	X12	Y12	Z12	X13	Y13	Z13	X14	Y14	Z14	X15	Y15	Z15	X16	Y16	Z16	X17	Y17	Z17	X18	Y18	Z18	X19	Y19	Z19	X20	Y20	Z20	X21	Y21	Z21	X22	Y22	Z22	X23	Y23	Z23	X24	Y24	Z24	X25	Y25	Z25	X26	Y26	Z26	X27	Y27	Z27	X28	Y28	Z28	X29	Y29	Z29	X30	Y30	Z30	X31	Y31	Z31	X32	Y32	Z32	X33	Y33	Z33	X34	Y34	Z34	X35	Y35	Z35	X36	Y36	Z36	X37	Y37	Z37	X38	Y38	Z38	X39	Y39	Z39	X40	Y40	Z40	X41	Y41	Z41	X42	Y42	Z42	X43	Y43	Z43	X44	Y44	Z44	X45	Y45	Z45	X46	Y46	Z46	X47	Y47	Z47	X48	Y48	Z48	X49	Y49	Z49	X50	Y50	Z50	X51	Y51	Z51	X52	Y52	Z52	X53	Y53	Z53	X54	Y54	Z54	X55	Y55	Z55	X56	Y56	Z56	X57	Y57	Z57	X58	Y58	Z58	X59	Y59	Z59	X60	Y60	Z60	X61	Y61	Z61	X62	Y62	Z62	X63	Y63	Z63	X64	Y64	Z64	X65	Y65	Z65	X66	Y66	Z66	X67	Y67	Z67	X68	Y68	Z68	X69	Y69	Z69	X70	Y70	Z70	X71	Y71	Z71	X72	Y72	Z72	X73	Y73	Z73	X74	Y74	Z74	X75	Y75	Z75	X76	Y76	Z76	X77	Y77	Z77	X78	Y78	Z78	X79	Y79	Z79	X80	Y80	Z80	X81	Y81	Z81	X82	Y82	Z82	X83	Y83	Z83	X84	Y84	Z84	X85	Y85	Z85	X86	Y86	Z86	X87	Y87	Z87	X88	Y88	Z88	X89	Y89	Z89	X90	Y90	Z90	X91	Y91	Z91	X92	Y92	Z92	X93	Y93	Z93	X94	Y94	Z94	X95	Y95	Z95	X96	Y96	Z96	X97	Y97	Z97	X98	Y98	Z98	X99	Y99	Z99	X100	Y100	Z100	X101	Y101	Z101	X102	Y102	Z102	X103	Y103	Z103	X104	Y104	Z104	X105	Y105	Z105	X106	Y106	Z106	X107	Y107	Z107	X108	Y108	Z108	X109	Y109	Z109	X110	Y110	Z110	X111	Y111	Z111	X112	Y112	Z112	X113	Y113	Z113	X114	Y114	Z114	X115	Y115	Z115	X116	Y116	Z116	X117	Y117	Z117	X118	Y118	Z118	X119	Y119	Z119	X120	Y120	Z120	X121	Y121	Z121	X122	Y122	Z122	X123	Y123	Z123	X124	Y124	Z124	X125	Y125	Z125	X126	Y126	Z126	X127	Y127	Z127	X128	Y128	Z128	X129	Y129	Z129	X130	Y130	Z130	X131	Y131	Z131	X132	Y132	Z132	X133	Y133	Z133	X134	Y134	Z134	X135	Y135	Z135	X136	Y136	Z136	X137	Y137	Z137	X138	Y138	Z138	X139	Y139	Z139	X140	Y140	Z140	X141	Y141	Z141	X142	Y142	Z142	X143	Y143	Z143	X144	Y144	Z144	X145	Y145	Z145	X146	Y146	Z146	X147	Y147	Z147	X148	Y148	Z148	X149	Y149	Z149	X150	Y150	Z150	X151	Y151	Z151	X152	Y152	Z152	X153	Y153	Z153	X154	Y154	Z154	X155	Y155	Z155	X156	Y156	Z156	X157	Y157	Z157	X158	Y158	Z158	X159	Y159	Z159	X160	Y160	Z160	X161	Y161	Z161	X162	Y162	Z162	X163	Y163	Z163	X164	Y164	Z164	X165	Y165	Z165	X166	Y166	Z166	X167	Y167	Z167	X168	Y168	Z168	X169	Y169	Z169	X170	Y170	Z170	X171	Y171	Z171	X172	Y172	Z172	X173	Y173	Z173	X174	Y174	Z174	X175	Y175	Z175	X176	Y176	Z176	X177	Y177	Z177	X178	Y178	Z178	X179	Y179	Z179	X180	Y180	Z180	X181	Y181	Z181	X182	Y182	Z182	X183	Y183	Z183	X184	Y184	Z184	X185	Y185	Z185	X186	Y186	Z186	

236	3.917	0.00000	0.00000	0.00000	0.00000	0.00000	0.00000	0.00000	0.00000	0.00000	0.00000	0.00000	0.00000	0.00000	0.00000	0.00000	0.00000	0.00000	0.00000	0.00000	0.00000	0.00000	0.00000	0.00000	0.00000	0.00000	0.00000	0.00000	0.00000	0.00000	0.00000	0.00000	0.00000	0.00000	0.00000	0.00000	0.00000	0.00000	0.00000	0.00000	0.00000	0.00000	0.00000	0.00000	0.00000	0.00000	0.00000	0.00000	0.00000	0.00000	0.00000	0.00000	0.00000	0.00000	0.00000	0.00000	0.00000	0.00000	0.00000	0.00000	0.00000	0.00000	0.00000	0.00000	0.00000	0.00000	0.00000	0.00000	0.00000	0.00000	0.00000	0.00000	0.00000	0.00000	0.00000	0.00000	0.00000	0.00000	0.00000	0.00000	0.00000	0.00000	0.00000	0.00000	0.00000	0.00000	0.00000	0.00000	0.00000	0.00000	0.00000	0.00000	0.00000	0.00000	0.00000	0.00000	0.00000	0.00000	0.00000	0.00000	0.00000	0.00000	0.00000	0.00000	0.00000	0.00000	0.00000	0.00000	0.00000	0.00000	0.00000	0.00000	0.00000	0.00000	0.00000	0.00000	0.00000	0.00000	0.00000	0.00000	0.00000	0.00000	0.00000	0.00000	0.00000	0.00000	0.00000	0.00000	0.00000	0.00000	0.00000	0.00000	0.00000	0.00000	0.00000	0.00000	0.00000	0.00000	0.00000	43.76380	520.50804	711.92711	-35.56672	444.42081	729.19113	125.43978	436.10847	691.39938	69.99187	442.84580	799.34441	64.40542	371.71623	893.24547	4.04636	197.60592	839.55215	-30.20944	121.98935	787.10266	-60.64765	79.34547	719.85283	209.31194	366.88999	754.08012	177.92049	200.33049	742.28561	102.86711	163.14837	694.89616	46.32983	102.66373	703.16483	190.64110	413.22651	858.20724	270.55197	407.82974	906.39641	346.19816	406.82388	988.66783	319.32434	358.30563	1027.02026	391.98177	377.76405	888.48007	455.55382	288.08361	1083.90549	510.63759	296.79108	950.06111	335.97519	165.02375	1088.19656	427.91283	64.98650	1106.16188	360.09792	21.84073	1089.05350	431.75697	185.97151	886.21674	509.73930	80.90100	966.32149	444.32125	22.96727	934.17702	43.76380	520.50804	711.92711	136.85867	369.30309	823.66287	214.21886	190.78949	780.41237	79.43282	169.52364	727.00829	26.96881	126.73275	746.84639	43.50996	170.96802	881.56761	12.94420	127.93826	750.34164	-15.80171	90.10133	692.73453	404.67304	175.94097	937.09007	473.73360	84.23869	1005.75111	414.58286	32.43746	977.63039	343.73455	155.82761	1040.69679	432.24560	59.44405	1053.12645	373.24272	21.74408	1037.19345	308.37210	360.88787	838.42331	217.68414	373.80493	990.25528	60.09726	371.68877	783.81943	0.00000	0.00000	0.00000	0.00000	0.00000	0.00000	0.00000	0.00000	0.00000	0.00000	0.00000	0.00000	0.00000	0.00000	0.00000	0.00000	0.00000	0.00000	0.00000	0.00000	0.00000	0.00000	0.00000	0.00000	0.00000	0.00000	0.00000	0.00000	0.00000	0.00000	0.00000	0.00000	0.00000	0.00000	0.00000	0.00000	0.00000	0.00000	0.00000	0.00000	0.00000	0.00000	0.00000	0.00000	0.00000	0.00000	0.00000	0.00000	0.00000	0.00000	0.00000	0.00000	0.00000	0.00000	0.00000	0.00000	0.00000	0.00000	0.00000	0.00000	0.00000	0.00000	0.00000	0.00000	0.00000	0.00000	0.00000	0.00000	0.00000	0.00000	0.00000	0.00000	0.00000	0.00000	0.00000	0.00000	0.00000	0.00000	0.00000	0.00000	0.00000	0.00000	0.00000	0.00000	0.00000	0.00000	0.00000	0.00000	0.00000	0.00000	0.00000	0.00000	0.00000	0.00000	0.00000	0.00000	0.00000	0.00000	0.00000	0.00000	0.00000	0.00000	0.00000	0.00000	0.00000	0.00000	0.00000	0.00000	0.00000	0.00000	0.00000	0.00000	0.00000	0.00000	0.00000	0.00000	0.00000	0.00000	0.00000	0.00000	0.00000	0.00000	0.00000	0.00000	0.00000	0.00000	0.00000	0.00000	0.00000	0.00000	0.00000	0.00000	0.00000	0.00000	0.00000	0.00000	0.00000	0.00000	0.00000	0.00000	0.00000	0.00000	0.00000	0.00000	0.00000	0.00000	0.00000	0.00000	0.00000	0.00000	0.00000	0.00000	0.00000	0.00000	0.00000	0.00000	0.00000	0.00000	0.00000	0.00000	0.00000	0.00000	0.00000	0.00000	0.00000	0.00000	0.00000	0.00000	0.00000	0.00000	0.00000	0.00000	0.00000	0.00000	0.00000	0.00000	0.00000	0.00000	0.00000	0.00000	0.00000	0.00000	0.00000	0.00000	0.00000	0.00000	0.00000	0.00000	0.00000	0.00000	0.00000	0.00000	0.00000	0.00000	0.00000	0.00000	0.00000	0.00000	0.00000	0.00000	0.00000	0.00000	0.00000	0.00000	0.00000	0.00000	0.00000	0.00000	0.00000	0.00000	0.00000	0.00000	0.00000	0.00000	0.00000	0.00000	0.00000	0.00000	0.00000	0.00000	0.00000	0.00000	0.00000	0.00000	0.00000	0.00000	0.00000	0.00000	0.00000	0.00000	0.00000	0.00000	0.00000	0.00000	0.00000	0.00000	0.00000	0.00000	0.00000	0.00000	0.00000	0.00000	0.00000	0.00000	0.00000	0.00000	0.00000	0.00000	0.00000	0.00000	0.00000	0.00000	0.00000	0.00000	0.00000	0.00000	0.00000	0.00000	0.00000	0.00000	0.00000	0.00000	0.00000	0.00000	0.00000	0.00000	0.00000	0.00000	0.00000	0.00000	0.00000	0.00000	0.00000	0.00000	0.00000	0.00000	0.00000	0.00000	0.00000	0.00000	0.00000	0.00000	0.00000	0.00000	0.00000	0.00000	0.00000	0.00000	0.00000	0.00000	0.00000	0.00000	0.00000	0.00000 
237	3.933	0.00000	0.00000	0.00000	0.00000	0.00000	0.00000	0.00000	0.00000	0.00000	0.00000	0.00000	0.00000	0.00000	0.00000	0.00000	0.00000	0.00000	0.00000	0.00000	0.00000	0.00000	0.00000	0.00000	0.00000	0.00000	0.00000	0.00000	0.00000	0.00000	0.00000	0.00000	0.00000	0.00000	0.00000	0.00000	0.00000	0.00000	0.00000	0.00000	0.00000	0.00000	0.00000	0.00000	0.00000	0.00000	0.00000	0.00000	0.00000	0.00000	0.00000	0.00000	0.00000	0.00000	0.00000	0.00000	0.00000	0.00000	0.00000	0.00000	0.00000	0.00000	0.00000	0.00000	0.00000	0.00000	0.00000	0.00000	0.00000	0.00000	0.00000	0.00000	0.00000	0.00000	0.00000	0.00000	0.00000	0.00000	0.00000	0.00000	0.00000	0.00000	0.00000	0.00000	0.00000	0.00000	0.00000	0.00000	0.00000	0.00000	0.00000	0.00000	0.00000	0.00000	0.00000	0.00000	0.00000	0.00000	0.00000	0.00000	0.00000	0.00000	0.00000	0.00000	0.00000	0.00000	0.00000	0.00000	0.00000	0.00000	0.00000	0.00000	0.00000	0.00000	0.00000	0.00000	0.00000	0.00000	0.00000	0.00000	0.00000	0.00000	0.00000	0.00000	0.00000	0.00000	0.00000	0.00000	0.00000	0.00000	0.00000	0.00000	0.00000	0.00000	0.00000	0.00000	0.00000	0.00000	0.00000	38.53576	517.32552	687.46231	-40.34873	441.03844	707.40295	120.66068	432.54944	668.45673	66.21633	440.12131	777.54578	56.02848	367.75154	874.63058	5.37254	191.99558	813.87527	-20.54277	106.06390	768.21831	-44.22680	59.16147	703.02132	204.04812	368.66558	739.72183	171.01482	199.96363	716.44974	99.26205	169.80829	658.89526	38.17393	116.95653	642.98767	182.91594	411.90784	844.80995	261.75381	406.14986	894.06784	336.46381	406.57539	976.28372	309.03210	359.15840	1015.30449	383.45924	375.49473	877.19589	447.19444	291.78667	1074.50600	501.00304	295.65176	940.53673	328.71086	165.13828	1082.66029	424.49287	68.56837	1104.23279	358.26408	22.29297	1088.40500	426.83945	184.36298	879.88663	507.11456	83.47936	963.94791	443.90495	22.90586	933.76839	38.53576	517.32552	687.46231	130.03830	368.20854	807.17621	206.14717	187.77836	754.91379	73.77257	171.02165	690.03708	15.18448	129.48598	689.64333	44.47337	165.95711	856.59966	23.06357	112.14708	732.01775	1.09943	71.71691	677.52335	399.46217	174.90795	930.71312	470.56046	86.82367	1002.86911	413.68965	33.02434	976.74393	336.77231	154.56012	1035.49973	429.04419	61.28628	1051.42654	371.59279	20.93286	1036.60973	301.33438	361.57249	825.50774	207.97359	368.42216	975.73364	57.27825	368.61904	763.06168	0.00000	0.00000	0.00000	0.00000	0.00000	0.00000	0.00000	0.00000	0.00000	0.00000	0.00000	0.00000	0.00000	0.00000	0.00000	0.00000	0.00000	0.00000	0.00000	0.00000	0.00000	0.00000	0.00000	0.00000	0.00000	0.00000	0.00000	0.00000	0.00000	0.00000	0.00000	0.00000	0.00000	0.00000	0.00000	0.00000	0.00000	0.00000	0.00000	0.00000	0.00000	0.00000	0.00000	0.00000	0.00000	0.00000	0.00000	0.00000	0.00000	0.00000	0.00000	0.00000	0.00000	0.00000	0.00000	0.00000	0.00000	0.00000	0.00000	0.00000	0.00000	0.00000	0.00000	0.00000	0.00000	0.00000	0.00000	0.00000	0.00000	0.00000	0.00000	0.00000	0.00000	0.00000	0.00000	0.00000	0.00000	0.00000	0.00000	0.00000	0.00000	0.00000	0.00000	0.00000	0.00000	0.00000	0.00000	0.00000	0.00000	0.00000	0.00000	0.00000	0.00000	0.00000	0.00000	0.00000	0.00000	0.00000	0.00000	0.00000	0.00000	0.00000	0.00000	0.00000	0.00000	0.00000	0.00000	0.00000	0.00000	0.00000	0.00000	0.00000	0.00000	0.00000	0.00000	0.00000	0.00000	0.00000	0.00000	0.00000	0.00000	0.00000	0.00000	0.00000	0.00000	0.00000	0.00000	0.00000	0.00000	0.00000	0.00000	0.00000	0.00000	0.00000	0.00000	0.00000	0.00000	0.00000	0.00000	0.00000	0.00000	0.00000	0.00000	0.00000	0.00000	0.00000	0.00000	0.00000	0.00000	0.00000	0.00000	0.00000	0.00000	0.00000	0.00000	0.00000	0.00000	0.00000	0.00000	0.00000	0.00000	0.00000	0.00000	0.00000	0.00000	0.00000	0.00000	0.00000	0.00000	0.00000	0.00000	0.00000	0.00000	0.00000	0.00000	0.00000	0.00000	0.00000	0.00000	0.00000	0.00000	0.00000	0.00000	0.00000	0.00000	0.00000	0.00000	0.00000	0.00000	0.00000	0.00000	0.00000	0.00000	0.00000	0.00000	0.00000	0.00000	0.00000	0.00000	0.00000	0.00000	0.00000	0.00000	0.00000	0.00000	0.00000	0.00000	0.00000	0.00000	0.00000	0.00000	0.00000	0.00000	0.00000	0.00000	0.00000	0.00000	0.00000	0.00000	0.00000	0.00000	0.00000	0.00000	0.00000	0.00000	0.00000	0.00000	0.00000	0.00000	0.00000	0.00000	0.00000	0.00000	0.00000	0.00000	0.00000	0.00000	0.00000	0.00000	0.00000	0.00000	0.00000	0.00000	0.00000	0.00000	0.00000	0.00000	0.00000	0.00000	0.00000	0.00000	0.00000	0.00000	0.00000	0.00000	0.00000	0.00000	0.00000	0.00000	0.00000	0.00000	0.00000	0.00000	0.00000	0.00000	0.00000	0.00000	0.00000	0.00000	0.00000	0.00000	0.00000	0.00000	0.00000	0.00000	0.00000	0.00000	0.00000	0.00000	0.00000	0.00000	0.00000	0.00000	0.00000	0.00000	0.00000	0.00000	0.00000	0.00000	0.00000	0.00000	0.00000	0.00000	0.00000 
238	3.950	0.00000	0.00000	0.00000	0.00000	0.00000	0.00000	0.00000	0.00000	0.00000	0.00000	0.00000	0.00000	0.00000	0.00000	0.00000	0.00000	0.00000	0.00000	0.00000	0.00000	0.00000	0.00000	0.00000	0.00000	0.00000	0.00000	0.00000	0.00000	0.00000	0.00000	0.00000	0.00000	0.00000	0.00000	0.00000	0.00000	0.00000	0.00000	0.00000	0.00000	0.00000	0.00000	0.00000	0.00000	0.00000	0.00000	0.00000	0.00000	0.00000	0.00000	0.00000	0.00000	0.00000	0.00000	0.00000	0.00000	0.00000	0.00000	0.00000	0.00000	0.00000	0.00000	0.00000	0.00000	0.00000	0.00000	0.00000	0.00000	0.00000	0.00000	0.00000	0.00000	0.00000	0.00000	0.00000	0.00000	0.00000	0.00000	0.00000	0.00000	0.00000	0.00000	0.00000	0.00000	0.00000	0.00000	0.00000	0.00000	0.00000	0.00000	0.00000	0.00000	0.00000	0.00000	0.00000	0.00000	0.00000	0.00000	0.00000	0.00000	0.00000	0.00000	0.00000	0.00000	0.00000	0.00000	0.00000	0.00000	0.00000	0.00000	0.00000	0.00000	0.00000	0.00000	0.00000	0.00000	0.00000	0.00000	0.00000	0.00000	0.00000	0.00000	0.00000	0.00000	0.00000	0.00000	0.00000	0.00000	0.00000	0.00000	0.00000	0.00000	0.00000	0.00000	0.00000	0.00000	0.00000	0.00000	31.05673	512.64824	661.27220	-47.35241	435.87929	683.84705	114.12296	428.34698	644.26781	60.17795	437.33315	754.01588	46.66434	362.86846	854.96544	10.28551	183.36992	795.13908	-7.87937	94.39342	757.35138	-27.87937	44.23038	695.37086	196.63719	370.45685	723.46405	161.72581	196.71534	688.79448	93.90340	166.82222	624.42047	36.53374	121.75198	588.72475	173.36235	410.97775	828.80241	251.85686	405.27439	879.01169	324.79885	407.38026	961.76773	296.70883	361.09463	1001.42609	373.81653	373.64502	864.69322	436.36620	297.15794	1064.57130	490.23495	295.99722	931.41029	320.16693	166.12076	1075.57213	419.42566	73.33554	1102.12952	356.04435	22.90347	1087.92786	421.90727	183.90947	873.69003	503.97552	86.87243	962.16209	443.61996	22.94449	933.30551	31.05673	512.64824	661.27220	121.65076	366.66267	789.21471	196.08168	182.16093	727.13631	67.34081	162.57711	654.37729	8.14177	121.97927	634.06891	50.02404	160.64798	839.14833	35.76582	100.81264	721.25580	17.10828	57.85874	669.82422	393.80157	175.02150	924.22043	466.65493	90.13189	1000.35629	412.36843	33.42854	975.44434	329.21314	154.18214	1028.91769	425.00366	64.29462	1049.69482	369.81949	20.12795	1036.30630	292.92505	362.81364	809.98459	197.94514	363.39020	958.53676	51.78840	365.41706	741.36909	0.00000	0.00000	0.00000	0.00000	0.00000	0.00000	0.00000	0.00000	0.00000	0.00000	0.00000	0.00000	0.00000	0.00000	0.00000	0.00000	0.00000	0.00000	0.00000	0.00000	0.00000	0.00000	0.00000	0.00000	0.00000	0.00000	0.00000	0.00000	0.00000	0.00000	0.00000	0.00000	0.00000	0.00000	0.00000	0.00000	0.00000	0.00000	0.00000	0.00000	0.00000	0.00000	0.00000	0.00000	0.00000	0.00000	0.00000	0.00000	0.00000	0.00000	0.00000	0.00000	0.00000	0.00000	0.00000	0.00000	0.00000	0.00000	0.00000	0.00000	0.00000	0.00000	0.00000	0.00000	0.00000	0.00000	0.00000	0.00000	0.00000	0.00000	0.00000	0.00000	0.00000	0.00000	0.00000	0.00000	0.00000	0.00000	0.00000	0.00000	0.00000	0.00000	0.00000	0.00000	0.00000	0.00000	0.00000	0.00000	0.00000	0.00000	0.00000	0.00000	0.00000	0.00000	0.00000	0.00000	0.00000	0.00000	0.00000	0.00000	0.00000	0.00000	0.00000	0.00000	0.00000	0.00000	0.00000	0.00000	0.00000	0.00000	0.00000	0.00000	0.00000	0.00000	0.00000	0.00000	0.00000	0.00000	0.00000	0.00000	0.00000	0.00000	0.00000	0.00000	0.00000	0.00000	0.00000	0.00000	0.00000	0.00000	0.00000	0.00000	0.00000	0.00000	0.00000	0.00000	0.00000	0.00000	0.00000	0.00000	0.00000	0.00000	0.00000	0.00000	0.00000	0.00000	0.00000	0.00000	0.00000	0.00000	0.00000	0.00000	0.00000	0.00000	0.00000	0.00000	0.00000	0.00000	0.00000	0.00000	0.00000	0.00000	0.00000	0.00000	0.00000	0.00000	0.00000	0.00000	0.00000	0.00000	0.00000	0.00000	0.00000	0.00000	0.00000	0.00000	0.00000	0.00000	0.00000	0.00000	0.00000	0.00000	0.00000	0.00000	0.00000	0.00000	0.00000	0.00000	0.00000	0.00000	0.00000	0.00000	0.00000	0.00000	0.00000	0.00000	0.00000	0.00000	0.00000	0.00000	0.00000	0.00000	0.00000	0.00000	0.00000	0.00000	0.00000	0.00000	0.00000	0.00000	0.00000	0.00000	0.00000	0.00000	0.00000	0.00000	0.00000	0.00000	0.00000	0.00000	0.00000	0.00000	0.00000	0.00000	0.00000	0.00000	0.00000	0.00000	0.00000	0.00000	0.00000	0.00000	0.00000	0.00000	0.00000	0.00000	0.00000	0.00000	0.00000	0.00000	0.00000	0.00000	0.00000	0.00000	0.00000	0.00000	0.00000	0.00000	0.00000	0.00000	0.00000	0.00000	0.00000	0.00000	0.00000	0.00000	0.00000	0.00000	0.00000	0.00000	0.00000	0.00000	0.00000	0.00000	0.00000	0.00000	0.00000	0.00000	0.00000	0.00000	0.00000	0.00000	0.00000	0.00000	0.00000	0.00000	0.00000	0.00000	0.00000	0.00000	0.00000	0.00000	0.00000	0.00000	0.00000	0.00000	0.00000	0.00000	0.00000	0.00000	0.00000	0.00000	0.00000	0.00000 
239	3.967	0.00000	0.00000	0.00000	0.00000	0.00000	0.00000	0.00000	0.00000	0.00000	0.00000	0.00000	0.00000	0.00000	0.00000	0.00000	0.00000	0.00000	0.00000	0.00000	0.00000	0.00000	0.00000	0.00000	0.00000	0.00000	0.00000	0.00000	0.00000	0.00000	0.00000	0.00000	0.00000	0.00000	0.00000	0.00000	0.00000	0.00000	0.00000	0.00000	0.00000	0.00000	0.00000	0.00000	0.00000	0.00000	0.00000	0.00000	0.00000	0.00000	0.00000	0.00000	0.00000	0.00000	0.00000	0.00000	0.00000	0.00000	0.00000	0.00000	0.00000	0.00000	0.00000	0.00000	0.00000	0.00000	0.00000	0.00000	0.00000	0.00000	0.00000	0.00000	0.00000	0.00000	0.00000	0.00000	0.00000	0.00000	0.00000	0.00000	0.00000	0.00000	0.00000	0.00000	0.00000	0.00000	0.00000	0.00000	0.00000	0.00000	0.00000	0.00000	0.00000	0.00000	0.00000	0.00000	0.00000	0.00000	0.00000	0.00000	0.00000	0.00000	0.00000	0.00000	0.00000	0.00000	0.00000	0.00000	0.00000	0.00000	0.00000	0.00000	0.00000	0.00000	0.00000	0.00000	0.00000	0.00000	0.00000	0.00000	0.00000	0.00000	0.00000	0.00000	0.00000	0.00000	0.00000	0.00000	0.00000	0.00000	0.00000	0.00000	0.00000	0.00000	0.00000	0.00000	0.00000	0.00000	0.00000	21.72923	505.86372	634.19136	-56.15756	428.35644	658.27644	106.10988	423.00526	619.20593	51.34483	434.00837	728.72772	36.34445	356.85539	834.43916	15.83321	173.96870	783.51074	1.82939	87.77888	752.39326	-18.83376	36.18726	693.94165	187.26465	371.87126	705.24994	150.36212	192.14716	658.49991	87.46615	156.20842	589.03545	39.11695	115.75867	541.32256	161.88025	410.34924	810.33112	240.68235	405.25494	861.34079	311.18816	409.19933	945.47218	282.44532	363.90957	985.57022	363.08968	372.94079	851.20987	421.80885	303.52596	1054.53751	478.42010	298.56161	923.00949	311.14450	168.26845	1066.76125	412.82784	79.01345	1099.79630	353.52303	23.50943	1087.79869	417.21840	185.03633	867.80617	500.21324	90.48869	960.47447	443.39348	22.93059	932.62459	21.72923	505.86372	634.19136	111.80455	364.36333	769.84451	184.34778	175.34937	696.24985	60.88818	147.02678	617.85053	6.56654	105.94089	582.63039	56.55483	156.71298	829.07654	45.21584	93.89246	715.93452	25.52456	49.02673	666.92795	387.87060	176.59473	917.70302	461.99280	93.51050	997.78824	410.75062	33.45878	973.68370	322.08473	155.16647	1020.83031	420.44491	68.48292	1047.89894	368.00079	19.13285	1036.48117	282.95832	364.57943	791.96861	187.51764	358.85883	938.83858	43.51702	361.66599	718.35678	0.00000	0.00000	0.00000	0.00000	0.00000	0.00000	0.00000	0.00000	0.00000	0.00000	0.00000	0.00000	0.00000	0.00000	0.00000	0.00000	0.00000	0.00000	0.00000	0.00000	0.00000	0.00000	0.00000	0.00000	0.00000	0.00000	0.00000	0.00000	0.00000	0.00000	0.00000	0.00000	0.00000	0.00000	0.00000	0.00000	0.00000	0.00000	0.00000	0.00000	0.00000	0.00000	0.00000	0.00000	0.00000	0.00000	0.00000	0.00000	0.00000	0.00000	0.00000	0.00000	0.00000	0.00000	0.00000	0.00000	0.00000	0.00000	0.00000	0.00000	0.00000	0.00000	0.00000	0.00000	0.00000	0.00000	0.00000	0.00000	0.00000	0.00000	0.00000	0.00000	0.00000	0.00000	0.00000	0.00000	0.00000	0.00000	0.00000	0.00000	0.00000	0.00000	0.00000	0.00000	0.00000	0.00000	0.00000	0.00000	0.00000	0.00000	0.00000	0.00000	0.00000	0.00000	0.00000	0.00000	0.00000	0.00000	0.00000	0.00000	0.00000	0.00000	0.00000	0.00000	0.00000	0.00000	0.00000	0.00000	0.00000	0.00000	0.00000	0.00000	0.00000	0.00000	0.00000	0.00000	0.00000	0.00000	0.00000	0.00000	0.00000	0.00000	0.00000	0.00000	0.00000	0.00000	0.00000	0.00000	0.00000	0.00000	0.00000	0.00000	0.00000	0.00000	0.00000	0.00000	0.00000	0.00000	0.00000	0.00000	0.00000	0.00000	0.00000	0.00000	0.00000	0.00000	0.00000	0.00000	0.00000	0.00000	0.00000	0.00000	0.00000	0.00000	0.00000	0.00000	0.00000	0.00000	0.00000	0.00000	0.00000	0.00000	0.00000	0.00000	0.00000	0.00000	0.00000	0.00000	0.00000	0.00000	0.00000	0.00000	0.00000	0.00000	0.00000	0.00000	0.00000	0.00000	0.00000	0.00000	0.00000	0.00000	0.00000	0.00000	0.00000	0.00000	0.00000	0.00000	0.00000	0.00000	0.00000	0.00000	0.00000	0.00000	0.00000	0.00000	0.00000	0.00000	0.00000	0.00000	0.00000	0.00000	0.00000	0.00000	0.00000	0.00000	0.00000	0.00000	0.00000	0.00000	0.00000	0.00000	0.00000	0.00000	0.00000	0.00000	0.00000	0.00000	0.00000	0.00000	0.00000	0.00000	0.00000	0.00000	0.00000	0.00000	0.00000	0.00000	0.00000	0.00000	0.00000	0.00000	0.00000	0.00000	0.00000	0.00000	0.00000	0.00000	0.00000	0.00000	0.00000	0.00000	0.00000	0.00000	0.00000	0.00000	0.00000	0.00000	0.00000	0.00000	0.00000	0.00000	0.00000	0.00000	0.00000	0.00000	0.00000	0.00000	0.00000	0.00000	0.00000	0.00000	0.00000	0.00000	0.00000	0.00000	0.00000	0.00000	0.00000	0.00000	0.00000	0.00000	0.00000	0.00000	0.00000	0.00000	0.00000	0.00000	0.00000	0.00000	0.00000	0.00000	0.00000	0.00000	0.00000	0.00000	0.00000	0.00000	0.00000	0.00000	0.00000	0.00000	0.00000	0.00000 
